<svg width="300" height="81" viewBox="0 0 300 81" fill="none" xmlns="http://www.w3.org/2000/svg">
<path d="M298.452 14.4656C297.389 13.2676 295.971 12.6679 294.052 12.6679C292.133 12.6679 290.671 13.3072 289.646 14.6239C288.629 15.8969 288.099 17.8076 288.099 20.3195V38.4898C285.737 35.9383 283.288 34.1054 280.807 32.869C279.251 32.1155 277.423 31.5596 275.384 31.2767C274.197 31.1181 272.979 31.0361 271.637 31.0361C265.397 31.0361 260.349 33.1888 256.473 37.4913C252.641 41.7967 250.728 47.7737 250.728 55.4592C250.728 59.0901 251.217 62.4744 252.189 65.5848C253.171 68.6923 254.548 71.3991 256.432 73.7131C258.307 76.0243 260.545 77.7722 263.114 79.054C265.681 80.2856 268.452 80.9189 271.47 80.9189C272.859 80.9189 274.156 80.8048 275.384 80.5674C276.198 80.4411 276.972 80.2445 277.748 80.0043C279.661 79.3705 281.454 78.4555 283.086 77.3001C284.756 76.1007 286.432 74.5492 288.099 72.6749V73.8716C288.099 76.1444 288.67 77.8541 289.769 79.0891C290.911 80.2856 292.338 80.9189 294.052 80.9189C295.804 80.9189 297.231 80.3267 298.329 79.1711C299.428 77.9746 300.001 76.2237 300.001 73.8716V19.6831C300.001 17.4102 299.469 15.6564 298.452 14.4656ZM285.775 64.589C284.671 66.9003 283.209 68.613 281.419 69.7275C279.582 70.845 277.581 71.3991 275.384 71.3991H275.346C273.143 71.3991 271.145 70.8038 269.308 69.6482C267.477 68.4548 266.006 66.6979 264.948 64.3883C263.891 62.036 263.36 59.2087 263.36 55.8611C263.36 52.7139 263.847 49.9249 264.866 47.5743C265.848 45.184 267.272 43.3481 269.067 42.0739C270.901 40.757 272.94 40.1617 275.264 40.1617H275.384C277.543 40.1617 279.538 40.7996 281.375 42.0327C283.209 43.2673 284.671 45.0654 285.775 47.4145C286.877 49.7651 287.404 52.5938 287.404 55.8611C287.404 59.3658 286.877 62.278 285.775 64.589Z" fill="#E4E5E7"/>
<path d="M246.848 65.1068C246.081 64.4292 245.018 64.0701 243.711 64.0701C242.53 64.0701 241.634 64.3487 240.98 64.8662C239.393 66.3021 238.13 67.4516 237.148 68.2931C236.173 69.0911 235.071 69.8888 233.888 70.6425C232.751 71.3583 231.526 71.9214 230.31 72.2409C229.042 72.5958 227.694 72.7542 226.188 72.7542C225.86 72.7542 225.532 72.7542 225.251 72.713C223.376 72.5958 221.624 72.0736 220.036 71.1177C218.155 70.0413 216.69 68.4548 215.548 66.381C214.446 64.2283 213.881 61.7605 213.84 58.9727H238.414C241.713 58.9727 244.279 58.4903 246.081 57.6119C247.912 56.6572 248.809 54.6658 248.809 51.5983C248.809 48.2503 247.912 44.9816 246.16 41.7585C244.405 38.5676 241.798 35.9383 238.253 33.9072C234.74 31.8779 230.545 30.8791 225.617 30.8791H225.251C221.624 30.9172 218.278 31.5185 215.305 32.6329C212.208 33.8282 209.597 35.541 207.435 37.7318C205.361 39.9623 203.729 42.6325 202.631 45.7399C201.532 48.8515 200.958 52.2361 200.958 55.8596C200.958 63.5934 203.202 69.6482 207.685 74.15C211.918 78.4145 217.792 80.6463 225.251 80.8812C225.658 80.9189 226.103 80.9189 226.555 80.9189C230.059 80.9189 233.199 80.485 235.927 79.57C238.66 78.6521 240.898 77.5317 242.7 76.1827C244.484 74.7867 245.832 73.3554 246.722 71.8771C247.625 70.405 248.073 69.0911 248.073 68.0118C248.073 66.7798 247.669 65.7827 246.848 65.1068ZM217.508 42.5928C219.5 40.4813 222.072 39.446 225.207 39.446H225.251C228.509 39.446 231.16 40.4813 233.155 42.552C235.159 44.6254 236.334 47.7737 236.624 51.9956H213.84C214.244 47.853 215.469 44.7017 217.508 42.5928Z" fill="#E4E5E7"/>
<path d="M193.416 64.0701C192.195 64.0701 191.295 64.3487 190.648 64.8662C189.095 66.3021 187.794 67.4543 186.813 68.2931C185.837 69.0911 184.777 69.8888 183.593 70.6425C182.415 71.3583 181.229 71.9214 179.966 72.2409C178.742 72.5958 177.356 72.7542 175.85 72.7542C175.525 72.7542 175.199 72.7542 174.915 72.713C173.037 72.5958 171.283 72.0736 169.695 71.1177C167.864 70.0413 166.352 68.4548 165.256 66.381C164.111 64.2283 163.539 61.7605 163.5 58.9727H188.117C191.38 58.9727 193.946 58.4903 195.781 57.6119C197.576 56.6572 198.47 54.6658 198.47 51.5983C198.47 48.2503 197.615 44.9816 195.863 41.7585C194.108 38.5676 191.459 35.9383 187.961 33.9072C184.443 31.8779 180.212 30.8791 175.325 30.8791H174.915C171.283 30.9172 167.981 31.5185 164.969 32.6329C161.868 33.8282 159.26 35.541 157.141 37.7318C155.021 39.9623 153.389 42.6325 152.294 45.7399C151.189 48.8515 150.621 52.2361 150.621 55.8611C150.621 63.5934 152.903 69.6482 157.391 74.15C161.623 78.4145 167.456 80.6463 174.915 80.8812C175.361 80.9189 175.768 80.9189 176.219 80.9189C179.761 80.9189 182.864 80.485 185.585 79.57C188.319 78.6521 190.563 77.5317 192.353 76.1827C194.187 74.7867 195.491 73.3554 196.39 71.8771C197.289 70.405 197.735 69.0911 197.735 68.0118C197.735 66.7798 197.33 65.7827 196.557 65.1068C195.743 64.4292 194.679 64.0701 193.416 64.0701ZM167.171 42.5928C169.163 40.4813 171.728 39.446 174.872 39.446H174.915C178.173 39.446 180.822 40.4813 182.822 42.552C184.856 44.6254 185.998 47.7737 186.326 51.9956H163.5C163.951 47.853 165.174 44.7017 167.171 42.5928Z" fill="#E4E5E7"/>
<path d="M26.1846 72.7542V43.4316C27.0401 43.5064 27.8559 43.546 28.7114 43.546C32.7865 43.546 36.6229 42.4712 39.8794 40.559V72.7542C39.8794 75.5021 39.226 77.5347 37.9648 78.8924C36.7051 80.2445 35.0293 80.9189 32.9917 80.9189C30.9937 80.9189 29.4043 80.2445 28.0976 78.8515C26.8379 77.4966 26.1846 75.4612 26.1846 72.7542Z" fill="#E4E5E7"/>
<path d="M144.587 14.4656C143.523 13.2676 142.062 12.6679 140.225 12.6679C138.31 12.6679 136.839 13.3072 135.822 14.6239C134.768 15.8969 134.273 17.8076 134.273 20.3195V38.4898C131.909 35.9383 129.464 34.1054 126.977 32.869C125.392 32.1155 123.594 31.5596 121.56 31.2767C120.379 31.1181 119.154 31.0361 117.811 31.0361C111.571 31.0361 106.478 33.1888 102.648 37.4913C98.8166 41.7967 96.8975 47.7737 96.8975 55.4592C96.8975 59.0901 97.3913 62.4744 98.3228 65.5848C99.3044 68.6923 100.73 71.3991 102.609 73.7131C104.48 76.0243 106.722 77.7722 109.295 79.054C111.861 80.2856 114.628 80.9189 117.644 80.9189C118.989 80.9189 120.296 80.8048 121.56 80.5674C122.373 80.4411 123.149 80.2445 123.924 80.0043C125.838 79.3705 127.632 78.4555 129.262 77.3001C130.932 76.1007 132.565 74.5492 134.273 72.6749V73.8716C134.273 76.1444 134.847 77.8541 135.946 79.0891C137.047 80.2856 138.514 80.9189 140.225 80.9189C141.892 80.9189 143.364 80.3267 144.468 79.1711C145.567 77.9746 146.094 76.2237 146.094 73.8716V19.6831C146.094 17.4102 145.609 15.6564 144.587 14.4656ZM131.948 64.589C130.851 66.9003 129.382 68.613 127.552 69.7275C125.757 70.845 123.719 71.3991 121.56 71.3991H121.516C119.322 71.3991 117.319 70.8038 115.486 69.6482C113.611 68.4548 112.185 66.6979 111.123 64.3883C110.065 62.036 109.535 59.2087 109.535 55.8611C109.535 52.7139 110.028 49.9249 111.003 47.5743C112.022 45.184 113.406 43.3481 115.24 42.0739C117.036 40.757 119.11 40.1617 121.397 40.1617H121.56C123.719 40.1617 125.715 40.7996 127.507 42.0327C129.382 43.2673 130.851 45.0654 131.948 47.4145C133.006 49.7651 133.583 52.5938 133.583 55.8611C133.583 59.3658 133.006 62.278 131.948 64.589Z" fill="#E4E5E7"/>
<path d="M59.9723 37.7318V39.2481C62.2133 36.3783 64.6202 34.3063 67.229 32.9498C69.8789 31.6374 72.8936 30.9554 76.3169 30.9554C79.6187 30.9554 82.5938 31.674 85.2041 33.0699C87.8129 34.4631 89.7275 36.4575 91.0328 39.0487C91.8896 40.559 92.42 42.197 92.6615 43.9479C92.9078 45.6591 93.0278 47.8881 93.0278 50.6009V73.4347C93.0278 75.9039 92.42 77.7722 91.2743 79.0098C90.1361 80.2856 88.6229 80.9189 86.789 80.9189C84.9185 80.9189 83.411 80.2856 82.226 78.9687C81.0425 77.693 80.477 75.825 80.477 73.4347V52.9884C80.477 48.9278 79.9043 45.8189 78.7616 43.6677C77.6207 41.518 75.296 40.4401 71.8769 40.4401C69.6344 40.4401 67.5938 41.1206 65.7584 42.3919C63.9287 43.7088 62.54 45.4978 61.6817 47.8103C61.0721 49.645 60.7838 53.0293 60.7838 58.0943V73.4347C60.7838 75.9421 60.1802 77.7722 58.9967 79.054C57.8129 80.2856 56.3072 80.9189 54.4292 80.9189C52.5995 80.9189 51.1259 80.2856 49.9454 78.9687C48.7646 77.693 48.1904 75.825 48.1904 73.4347V37.9297C48.1904 35.5821 48.7208 33.8282 49.7828 32.7122C50.8022 31.5596 52.226 30.9554 54.0644 30.9554C55.1645 30.9554 56.1401 31.1929 57.035 31.7179C57.9374 32.2311 58.667 32.9909 59.1971 34.0261C59.726 35.0583 59.9723 36.2975 59.9723 37.7318Z" fill="#E4E5E7"/>
<path d="M26.2633 2.47166C34.7418 -0.51984 44.4024 -0.359768 51.6564 5.77551C53.0055 7.01043 54.5508 8.56489 55.1631 10.3978C55.8984 12.7087 52.5981 10.156 52.1457 9.84186C49.7829 8.32583 47.4171 7.05157 44.7717 6.17313C30.507 1.87192 17.0098 9.64274 8.61919 21.7157C5.11528 27.0548 2.82872 32.6696 0.955128 38.8448C0.752979 39.5251 0.588918 40.4035 0.218371 40.9945C-0.14784 41.6778 0.0572379 39.1689 0.0572379 39.0854C0.339894 36.5381 0.873099 34.0673 1.52642 31.5963C5.39654 18.4455 13.9542 7.48974 26.2633 2.47166Z" fill="#E4E5E7"/>
<path d="M37.3107 35.1013C32.2176 37.6513 25.9773 35.6629 23.4095 30.6815C20.8005 25.6985 22.8411 19.6041 27.9343 17.0937C33.0306 14.5437 39.2709 16.5336 41.8356 21.5166C44.4447 26.4977 42.4071 32.5921 37.3107 35.1013Z" fill="#E4E5E7"/>
</svg>
