<svg width="300" height="62" viewBox="0 0 300 62" fill="none" xmlns="http://www.w3.org/2000/svg">
<path d="M95.9707 48.2009L99.7177 41.2386C103.767 43.6561 109.146 44.9132 114.464 44.9132C118.392 44.9132 120.87 43.7044 120.87 41.8672C120.81 36.7422 97.3607 40.7551 97.1794 27.8943C97.119 21.3672 104.371 16.3389 114.645 16.3389C120.749 16.3389 126.853 17.5476 131.204 20.3035L127.699 27.4108C123.71 25.3801 118.755 23.9297 114.041 23.9297C110.838 23.9297 108.723 25.1384 108.723 26.6856C108.783 31.7139 132.413 28.958 132.655 41.2386C132.655 47.9108 125.584 52.6007 115.431 52.6007C107.997 52.6007 101.168 51.1985 95.9707 48.2009Z" fill="#E4E5E7"/>
<path d="M239.746 38.7255C237.873 41.3363 234.368 43.1252 230.318 43.1252C224.335 43.1252 219.501 39.2573 219.501 34.4707C219.501 29.6842 224.335 25.8163 230.318 25.8163C234.368 25.8163 237.873 27.6052 239.746 30.216L250.081 25.6229C246.213 20.1111 238.779 16.3398 230.318 16.3398C217.808 16.3398 207.655 24.4625 207.655 34.4707C207.655 44.479 217.808 52.6016 230.318 52.6016C238.84 52.6016 246.213 48.8788 250.081 43.3186L239.746 38.7255Z" fill="#E4E5E7"/>
<path d="M150.786 1.30273H137.853V51.9242H150.786V1.30273Z" fill="#E4E5E7"/>
<path d="M255.157 1.30273V51.9242H268.09V36.7426L283.441 51.9242H300L280.48 33.89L298.55 17.0645H282.716L268.09 31.0374V1.30273H255.157Z" fill="#E4E5E7"/>
<path d="M189.222 38.8222C187.348 41.288 183.481 43.1252 179.129 43.1252C173.146 43.1252 168.311 39.2573 168.311 34.4707C168.311 29.6842 173.146 25.8163 179.129 25.8163C183.481 25.8163 187.348 27.7502 189.222 30.2644V38.8222ZM189.222 17.0651V21.1747C187.107 18.3222 181.849 16.3398 176.349 16.3398C164.987 16.3398 156.043 24.3658 156.043 34.4224C156.043 44.479 164.987 52.6016 176.349 52.6016C181.849 52.6016 187.107 50.6193 189.222 47.7667V51.8764H202.155V17.0651H189.222Z" fill="#E4E5E7"/>
<path d="M16.0154 38.7727C16.0154 42.3022 12.4497 45.1548 8.03798 45.1548C3.62622 45.1548 0.0605469 42.3022 0.0605469 38.7727C0.0605469 35.2432 3.62622 32.3906 8.03798 32.3906H16.0154V38.7727Z" fill="#E4E5E7"/>
<path d="M20.0039 38.7727C20.0039 35.2432 23.5696 32.3906 27.9813 32.3906C32.3931 32.3906 35.9588 35.2432 35.9588 38.7727V54.7279C35.9588 58.2574 32.3931 61.11 27.9813 61.11C23.5696 61.11 20.0039 58.2574 20.0039 54.7279V38.7727Z" fill="#E4E5E7"/>
<path d="M27.9813 13.1479C23.5696 13.1479 20.0039 10.2953 20.0039 6.76587C20.0039 3.23639 23.5696 0.383789 27.9813 0.383789C32.3931 0.383789 35.9588 3.23639 35.9588 6.76587V13.1479H27.9813Z" fill="#E4E5E7"/>
<path d="M27.9815 16.3877C32.3932 16.3877 35.9589 19.2403 35.9589 22.7698C35.9589 26.2993 32.3932 29.1518 27.9815 29.1518H7.97744C3.56567 29.1518 0 26.2993 0 22.7698C0 19.2403 3.56567 16.3877 7.97744 16.3877H27.9815Z" fill="#E4E5E7"/>
<path d="M59.9512 22.7688C59.9512 19.2393 63.5169 16.3867 67.9286 16.3867C72.3404 16.3867 75.9061 19.2393 75.9061 22.7688C75.9061 26.2983 72.3404 29.1509 67.9286 29.1509H59.9512V22.7688Z" fill="#E4E5E7"/>
<path d="M55.9627 22.7694C55.9627 26.2989 52.397 29.1515 47.9853 29.1515C43.5735 29.1515 40.0078 26.2989 40.0078 22.7694V6.76587C40.0078 3.23639 43.5735 0.383789 47.9853 0.383789C52.397 0.383789 55.9627 3.23639 55.9627 6.76587V22.7694Z" fill="#E4E5E7"/>
<path d="M47.9853 48.3457C52.397 48.3457 55.9627 51.1983 55.9627 54.7278C55.9627 58.2573 52.397 61.1099 47.9853 61.1099C43.5735 61.1099 40.0078 58.2573 40.0078 54.7278V48.3457H47.9853Z" fill="#E4E5E7"/>
<path d="M47.9853 45.1548C43.5735 45.1548 40.0078 42.3022 40.0078 38.7727C40.0078 35.2432 43.5735 32.3906 47.9853 32.3906H67.9893C72.401 32.3906 75.9667 35.2432 75.9667 38.7727C75.9667 42.3022 72.401 45.1548 67.9893 45.1548H47.9853Z" fill="#E4E5E7"/>
</svg>
