<svg width="300" height="106" viewBox="0 0 300 106" fill="none" xmlns="http://www.w3.org/2000/svg">
<g clip-path="url(#clip0_2_1643)">
<path fill-rule="evenodd" clip-rule="evenodd" d="M39.5604 0H65.9341C87.7827 0 105.495 17.7118 105.495 39.5604V65.9341C105.495 87.7827 87.7827 105.495 65.9341 105.495H39.5604C17.7118 105.495 0 87.7827 0 65.9341V39.5604C0 17.7118 17.7118 0 39.5604 0ZM150.01 74.4197C151.802 74.4197 153.482 74.1344 155.05 73.564C156.618 72.9935 158.155 72.1175 159.662 70.9358V73.6862H170.292V39.0919H159.662V62.0733C157.178 64.0291 154.754 65.0071 152.392 65.0071C150.396 65.0071 148.981 64.569 148.146 63.693C147.311 62.8169 146.894 61.5436 146.894 59.8729V39.0919H136.264V59.8729C136.264 64.9256 137.404 68.6132 139.685 70.9358C141.966 73.2584 145.407 74.4197 150.01 74.4197ZM188.607 73.6862L193.983 64.3347L199.603 73.6862H212.005L200.398 56.1446L211.455 39.0919H199.176L194.166 47.4654L189.218 39.0919H176.816L187.507 55.6556L176.205 73.6862H188.607ZM233.374 74.7253C237.895 74.7253 242.029 73.6047 245.776 71.3636L242.783 62.5622C241.316 63.4994 239.901 64.1921 238.537 64.6403C237.172 65.0886 235.757 65.3127 234.291 65.3127C231.684 65.3127 229.79 64.5385 228.609 62.9901C227.428 61.4417 226.838 59.2006 226.838 56.2668C226.838 53.4145 227.448 51.2549 228.67 49.788C229.892 48.3211 231.867 47.5673 234.596 47.5265C236.225 47.5265 237.702 47.6691 239.025 47.9544C240.349 48.2396 241.764 48.7489 243.271 49.4824V39.8253C241.683 39.1733 240.156 38.7251 238.689 38.4806C237.223 38.2362 235.452 38.1139 233.374 38.1139C227.672 38.1547 223.315 39.754 220.301 42.9119C217.287 46.0698 215.78 50.5418 215.78 56.3279C215.78 62.1548 217.287 66.6675 220.301 69.8662C223.315 73.0648 227.672 74.6845 233.374 74.7253ZM268.489 74.7253C271.381 74.7253 273.866 74.491 275.943 74.0224C278.02 73.5538 280.117 72.7287 282.235 71.547L279.486 63.3568C277.613 64.294 275.953 64.9561 274.507 65.3432C273.061 65.7303 271.544 65.9239 269.956 65.9239C267.227 65.9239 265.16 65.3738 263.755 64.2736C262.35 63.1734 261.423 61.6454 260.975 59.6896H282.846V55.4722C282.846 49.8084 281.4 45.4993 278.509 42.5452C275.617 39.591 271.626 38.1139 266.534 38.1139C263.358 38.1139 260.486 38.8168 257.92 40.2226C255.355 41.6284 253.318 43.7065 251.811 46.4569C250.304 49.2073 249.551 52.4977 249.551 56.3279C249.551 59.9952 250.284 63.2142 251.75 65.985C253.216 68.7558 255.365 70.9052 258.195 72.4333C261.026 73.9613 264.457 74.7253 268.489 74.7253ZM261.036 51.805C261.403 50.0121 262.044 48.7489 262.961 48.0155C263.877 47.282 265.068 46.9153 266.534 46.9153C268.123 46.9153 269.335 47.3024 270.169 48.0766C271.004 48.8508 271.503 50.0936 271.666 51.805H261.036ZM300 74.7253V21.978H289.37V74.6336L300 74.7253Z" fill="#E4E5E7"/>
<path fill-rule="evenodd" clip-rule="evenodd" d="M19.7803 32.945L47.2528 45.4324V83.2589L19.7803 70.7712V58.7002L36.2638 66.1929V52.5082L19.7803 45.0154V32.945ZM85.7143 32.945V45.0154L69.2308 52.5082V66.1929L85.7143 58.7002V70.7712L58.2418 83.2589V45.4324L85.7143 32.945ZM52.7378 17.582L76.3544 28.3655L64.7105 33.6172L52.7566 28.161L40.839 33.6502L29.2314 28.4183L52.7378 17.582Z" fill="white"/>
</g>
<defs>
<clipPath id="clip0_2_1643">
<rect width="300" height="105.495" fill="white"/>
</clipPath>
</defs>
</svg>
