<svg width="30" height="30" viewBox="0 0 30 30" fill="none" xmlns="http://www.w3.org/2000/svg">
<path d="M23.75 8.75H30V11.25H23.75V8.75ZM21.25 15H30V17.5H21.25V15ZM25 21.25H30V23.75H25V21.25ZM2.5 27.5C2.5 24.8478 3.55357 22.3043 5.42893 20.4289C7.3043 18.5536 9.84784 17.5 12.5 17.5C15.1522 17.5 17.6957 18.5536 19.5711 20.4289C21.4464 22.3043 22.5 24.8478 22.5 27.5H20C20 25.5109 19.2098 23.6032 17.8033 22.1967C16.3968 20.7902 14.4891 20 12.5 20C10.5109 20 8.60322 20.7902 7.1967 22.1967C5.79018 23.6032 5 25.5109 5 27.5H2.5ZM12.5 16.25C8.35625 16.25 5 12.8938 5 8.75C5 4.60625 8.35625 1.25 12.5 1.25C16.6438 1.25 20 4.60625 20 8.75C20 12.8938 16.6438 16.25 12.5 16.25ZM12.5 13.75C15.2625 13.75 17.5 11.5125 17.5 8.75C17.5 5.9875 15.2625 3.75 12.5 3.75C9.7375 3.75 7.5 5.9875 7.5 8.75C7.5 11.5125 9.7375 13.75 12.5 13.75Z" fill="#1D1616"/>
</svg>
