<svg width="50" height="50" viewBox="0 0 50 50" fill="none" xmlns="http://www.w3.org/2000/svg">
<path d="M17.2292 47.3962H8.81251C4.62501 47.3962 2.60417 45.4587 2.60417 41.4587V8.54199C2.60417 4.54199 4.64584 2.60449 8.81251 2.60449H17.2292C21.4167 2.60449 23.4375 4.54199 23.4375 8.54199V41.4587C23.4375 45.4587 21.3958 47.3962 17.2292 47.3962ZM8.81251 5.72949C6.16667 5.72949 5.72917 6.43783 5.72917 8.54199V41.4587C5.72917 43.5628 6.16667 44.2712 8.81251 44.2712H17.2292C19.875 44.2712 20.3125 43.5628 20.3125 41.4587V8.54199C20.3125 6.43783 19.875 5.72949 17.2292 5.72949H8.81251V5.72949Z" fill="#214953"/>
<path d="M41.1875 28.6462H32.7708C28.5833 28.6462 26.5625 26.7087 26.5625 22.7087V8.54199C26.5625 4.54199 28.6042 2.60449 32.7708 2.60449H41.1875C45.375 2.60449 47.3958 4.54199 47.3958 8.54199V22.7087C47.3958 26.7087 45.3542 28.6462 41.1875 28.6462ZM32.7708 5.72949C30.125 5.72949 29.6875 6.43783 29.6875 8.54199V22.7087C29.6875 24.8128 30.125 25.5212 32.7708 25.5212H41.1875C43.8333 25.5212 44.2708 24.8128 44.2708 22.7087V8.54199C44.2708 6.43783 43.8333 5.72949 41.1875 5.72949H32.7708V5.72949Z" fill="#214953"/>
<path d="M41.1875 47.3955H32.7708C28.5833 47.3955 26.5625 45.458 26.5625 41.458V37.708C26.5625 33.708 28.6042 31.7705 32.7708 31.7705H41.1875C45.375 31.7705 47.3958 33.708 47.3958 37.708V41.458C47.3958 45.458 45.3542 47.3955 41.1875 47.3955ZM32.7708 34.8955C30.125 34.8955 29.6875 35.6038 29.6875 37.708V41.458C29.6875 43.5622 30.125 44.2705 32.7708 44.2705H41.1875C43.8333 44.2705 44.2708 43.5622 44.2708 41.458V37.708C44.2708 35.6038 43.8333 34.8955 41.1875 34.8955H32.7708Z" fill="#214953"/>
</svg>
