<svg width="30" height="30" viewBox="0 0 30 30" fill="none" xmlns="http://www.w3.org/2000/svg">
<g clip-path="url(#clip0_2_2071)">
<path d="M27.5 16.25H25V9.0475L15.09 17.9225L5 9.02V23.75H17.5V26.25H3.75C3.41848 26.25 3.10054 26.1183 2.86612 25.8839C2.6317 25.6495 2.5 25.3315 2.5 25V5C2.5 4.66848 2.6317 4.35054 2.86612 4.11612C3.10054 3.8817 3.41848 3.75 3.75 3.75H26.25C26.5815 3.75 26.8995 3.8817 27.1339 4.11612C27.3683 4.35054 27.5 4.66848 27.5 5V16.25ZM5.63875 6.25L15.0763 14.5775L24.3775 6.25H5.63875ZM26.25 22.5H30V25H26.25V28.75H23.75V25H20V22.5H23.75V18.75H26.25V22.5Z" fill="#1D1616"/>
</g>
<defs>
<clipPath id="clip0_2_2071">
<rect width="30" height="30" fill="white"/>
</clipPath>
</defs>
</svg>
