<svg width="282" height="144" viewBox="0 0 282 144" fill="none" xmlns="http://www.w3.org/2000/svg">
<g clip-path="url(#clip0_1437_2762)">
<path d="M121.224 90.2461L124.506 90.2655L124.485 93.3298L121.203 93.3104L121.224 90.2461ZM127.851 81.0921L131.133 81.1115L131.112 84.1758L127.83 84.1564L127.851 81.0921ZM118.005 81.0339L117.963 87.1624L121.245 87.1819L121.266 84.1176L124.548 84.137L124.569 81.0727L118.005 81.0339ZM124.485 93.3298L131.049 93.3686L131.029 96.4329L124.465 96.3941L124.485 93.3298ZM124.465 96.3941L124.444 99.4584L117.88 99.4196L117.921 93.291L121.203 93.3104L121.183 96.3747L124.465 96.3941ZM134.331 93.3881L137.613 93.4075L137.572 99.536L131.008 99.4972L131.029 96.4329L134.311 96.4523L134.331 93.3881ZM134.352 90.3238L134.373 87.2595L127.809 87.2207L127.83 84.1564L124.548 84.137L124.506 90.2655L134.352 90.3238ZM134.415 81.1309L137.697 81.1503L137.655 87.2789L134.373 87.2595L134.415 81.1309ZM131.257 62.7258L131.216 68.8544L124.652 68.8156L124.693 62.687L131.257 62.7258Z" fill="white"/>
<path d="M118.046 74.9047L118.171 56.519L137.863 56.6355L137.738 75.0212L118.046 74.9047ZM121.432 59.6027L121.349 71.8599L134.477 71.9375L134.56 59.6804L121.432 59.6027ZM157.347 87.3948L157.305 93.5233L150.741 93.4845L150.783 87.3559L157.347 87.3948Z" fill="white"/>
<path d="M144.137 99.5748L144.261 81.1892L163.953 81.3056L163.829 99.6913L144.137 99.5748ZM147.523 84.2728L147.439 96.53L160.567 96.6076L160.651 84.3505L147.523 84.2728ZM157.514 62.8811L157.473 69.0097L150.909 68.9708L150.95 62.8423L157.514 62.8811Z" fill="white"/>
<path d="M144.302 75.0603L144.427 56.6746L164.119 56.791L163.994 75.1767L144.302 75.0603ZM147.688 59.7583L147.605 72.0154L160.733 72.093L160.816 59.8359L147.688 59.7583Z" fill="white"/>
</g>
<path d="M120.377 35.745C118.313 37.4651 115.984 38.3252 113.391 38.3252C110.718 38.3252 108.456 37.7033 106.603 36.4595C104.751 35.2157 103.361 33.5221 102.435 31.3786C101.535 29.2086 101.086 26.7739 101.086 24.0747C101.086 21.5077 101.575 19.1525 102.554 17.009C103.533 14.8654 105.002 13.1585 106.96 11.8883C108.945 10.5916 111.367 9.94324 114.225 9.94324C116.077 9.94324 117.718 10.2079 119.147 10.7371C120.602 11.2664 121.74 12.0074 122.561 12.9601C123.381 13.8863 123.791 14.958 123.791 16.1754C123.791 17.525 123.381 18.6365 122.561 19.5097C121.767 20.383 120.761 20.8197 119.544 20.8197C119.147 20.8197 118.909 20.7932 118.829 20.7403C118.75 20.6874 118.71 20.555 118.71 20.3433C118.71 20.264 118.816 20.039 119.028 19.6685C119.266 19.298 119.464 18.8879 119.623 18.438C119.808 17.9616 119.901 17.3927 119.901 16.7311C119.901 15.3815 119.372 14.2832 118.313 13.4364C117.281 12.5896 115.918 12.1662 114.225 12.1662C112.134 12.1662 110.427 12.7616 109.104 13.9524C107.781 15.1433 106.828 16.6252 106.246 18.3983C105.664 20.1713 105.373 21.9973 105.373 23.8762C105.373 26.0727 105.703 28.0839 106.365 29.9098C107.053 31.7093 108.032 33.1384 109.302 34.1969C110.573 35.2554 112.055 35.7847 113.748 35.7847C116.368 35.7847 118.578 34.8849 120.377 33.0854V31.061C120.377 29.8437 120.205 28.9969 119.861 28.5205C119.517 28.0442 118.842 27.6605 117.837 27.3694L116.924 27.1312L117.4 25.7816H125.736L126.252 26.4167L125.736 27.1312C125.075 28.0045 124.611 28.9307 124.347 29.9098C124.082 30.889 123.95 32.1725 123.95 33.7603V38.3649C123.95 46.1451 120.801 50.0352 114.502 50.0352C112.941 50.0352 111.618 49.7574 110.533 49.2016C109.448 48.6724 108.628 47.9711 108.072 47.0978C107.543 46.251 107.278 45.338 107.278 44.3588C107.278 43.0357 107.728 41.8977 108.628 40.9451C109.527 40.0188 110.758 39.5557 112.319 39.5557C112.584 39.5557 112.769 39.5954 112.875 39.6748C113.007 39.7807 113.073 39.8865 113.073 39.9924C113.073 40.0982 112.888 40.3496 112.518 40.7466C112.147 41.1435 111.816 41.6199 111.525 42.1756C111.261 42.7313 111.128 43.4326 111.128 44.2794C111.128 45.338 111.486 46.2113 112.2 46.8993C112.941 47.6138 113.934 47.9711 115.177 47.9711C116.897 47.9711 118.194 47.3095 119.067 45.9863C119.941 44.6632 120.377 42.4932 120.377 39.4763V35.745ZM136.113 33.7206C136.113 34.5674 136.179 35.2025 136.311 35.6259C136.443 36.0493 136.682 36.3404 137.026 36.4992C137.396 36.658 137.939 36.7374 138.653 36.7374H142.94C143.893 36.7374 144.634 36.6448 145.163 36.4595C145.692 36.2478 146.103 35.9038 146.394 35.4274C146.711 34.9246 147.002 34.1837 147.267 33.2045L147.505 32.2915L148.855 32.7679V39.5557L148.061 39.9924L147.743 39.5557C147.452 39.1852 146.897 39 146.076 39H129.365L128.928 37.7298L129.762 37.4916C130.741 37.2005 131.389 36.83 131.707 36.3801C132.024 35.9303 132.183 35.1364 132.183 33.9984V18.4777C132.183 16.8899 132.051 15.6064 131.786 14.6273C131.521 13.6481 131.058 12.7219 130.397 11.8486L129.881 11.1341L130.397 10.499H142.543C144.819 10.499 146.328 10.2211 147.069 9.66538L147.783 9.14934L148.418 9.66538V16.7311L147.069 17.2074L146.83 16.2944C146.566 15.3153 146.275 14.5876 145.957 14.1112C145.666 13.6084 145.256 13.2644 144.727 13.0792C144.197 12.8674 143.456 12.7616 142.504 12.7616H138.653C137.939 12.7616 137.396 12.841 137.026 12.9998C136.682 13.1585 136.443 13.4496 136.311 13.8731C136.179 14.2965 136.113 14.9316 136.113 15.7784V23.3999H141.154C141.789 23.3999 142.345 23.2675 142.821 23.0029C143.324 22.7118 143.814 22.2355 144.29 21.5739L144.607 21.1372L145.401 21.5739V28.3617L144.052 28.8381L143.814 27.9251C143.575 27.0253 143.152 26.4299 142.543 26.1388C141.961 25.8213 140.942 25.6625 139.487 25.6625H136.113V33.7206ZM158.951 31.0213C158.951 32.6091 159.084 33.8926 159.348 34.8717C159.613 35.8509 160.076 36.7771 160.738 37.6504L161.254 38.3649L160.738 39H153.196L152.719 37.6504L153.632 37.4122C154.638 37.1211 155.313 36.7374 155.657 36.261C156.001 35.7847 156.173 34.9379 156.173 33.7206V15.7784C156.173 14.5611 156.001 13.7143 155.657 13.2379C155.313 12.7616 154.638 12.3779 153.632 12.0868L152.719 11.8486L153.196 10.499H159.586L174.75 33.0061V15.7784C174.75 14.5611 174.578 13.7143 174.234 13.2379C173.89 12.7616 173.215 12.3779 172.209 12.0868L171.296 11.8486L171.773 10.499H179.315L179.831 11.1341L179.315 11.8486C178.653 12.7219 178.19 13.6481 177.926 14.6273C177.661 15.6064 177.529 16.8899 177.529 18.4777V35.5068C177.529 36.0096 177.568 36.4198 177.648 36.7374C177.727 37.0549 177.873 37.3593 178.084 37.6504L178.6 38.3649L178.084 39H174.075L158.951 16.5723V31.0213ZM189.188 60.9432C190.908 60.9432 192.443 61.1946 193.793 61.6974C195.169 62.1738 196.227 62.8618 196.968 63.7616C197.736 64.6349 198.119 65.6405 198.119 66.7784C198.119 68.128 197.709 69.2395 196.889 70.1128C196.095 70.9861 195.089 71.4227 193.872 71.4227C193.316 71.4227 193.038 71.264 193.038 70.9464C193.038 70.867 193.144 70.6421 193.356 70.2716C193.594 69.9011 193.793 69.4909 193.951 69.041C194.137 68.5647 194.229 67.9957 194.229 67.3341C194.229 66.0904 193.766 65.0848 192.84 64.3173C191.914 63.5499 190.696 63.1662 189.188 63.1662C187.23 63.1662 185.629 63.7748 184.385 64.9921C183.141 66.2095 182.241 67.7708 181.686 69.6761C181.13 71.5815 180.852 73.6192 180.852 75.7892C180.852 78.0121 181.196 80.0365 181.884 81.8625C182.599 83.6885 183.604 85.144 184.901 86.229C186.198 87.2875 187.706 87.8168 189.426 87.8168C191.12 87.8168 192.589 87.5124 193.832 86.9038C195.076 86.2687 196.095 85.3821 196.889 84.2442C196.968 84.1384 197.061 84.0854 197.167 84.0854C197.405 84.0854 197.67 84.2178 197.961 84.4824C198.278 84.7206 198.437 84.9587 198.437 85.1969C198.437 85.2763 198.397 85.3821 198.318 85.5145C196.042 88.8753 192.959 90.5557 189.069 90.5557C186.317 90.5557 183.988 89.9074 182.083 88.6107C180.177 87.314 178.748 85.5542 177.796 83.3312C176.843 81.0819 176.367 78.5678 176.367 75.7892C176.367 72.9841 176.843 70.47 177.796 68.2471C178.748 65.9977 180.177 64.2247 182.083 62.928C184.014 61.6048 186.383 60.9432 189.188 60.9432ZM200.866 75.7892C200.866 72.9841 201.355 70.47 202.335 68.2471C203.314 65.9977 204.782 64.2247 206.741 62.928C208.725 61.6048 211.147 60.9432 214.005 60.9432C216.863 60.9432 219.271 61.6048 221.229 62.928C223.214 64.2247 224.696 65.9977 225.675 68.2471C226.681 70.47 227.184 72.9841 227.184 75.7892C227.184 78.5943 226.681 81.1083 225.675 83.3312C224.696 85.5542 223.214 87.314 221.229 88.6107C219.271 89.9074 216.863 90.5557 214.005 90.5557C211.147 90.5557 208.725 89.9074 206.741 88.6107C204.782 87.314 203.314 85.5542 202.335 83.3312C201.355 81.1083 200.866 78.5943 200.866 75.7892ZM222.857 75.9083C222.857 74.0029 222.579 72.0843 222.023 70.1525C221.494 68.1942 220.581 66.5535 219.284 65.2303C217.988 63.8807 216.294 63.2059 214.203 63.2059C212.324 63.2059 210.697 63.7881 209.321 64.9524C207.971 66.0904 206.939 67.6385 206.225 69.5968C205.51 71.555 205.153 73.725 205.153 76.1067C205.153 78.4091 205.484 80.4732 206.145 82.2992C206.807 84.1251 207.786 85.5674 209.083 86.6259C210.406 87.6845 211.994 88.2137 213.846 88.2137C215.699 88.2137 217.3 87.6712 218.649 86.5862C220.025 85.5012 221.071 84.0325 221.785 82.1801C222.5 80.3012 222.857 78.2106 222.857 75.9083ZM230.177 88.6504L231.09 88.4122C231.936 88.174 232.571 87.83 232.995 87.3801C233.418 86.9038 233.63 86.1628 233.63 85.1572V65.1112C233.63 64.7672 233.564 64.529 233.432 64.3967C233.299 64.2379 233.074 64.1585 232.757 64.1585H230.454L229.978 62.6898C231.248 62.2399 232.889 61.843 234.9 61.499C236.911 61.1285 238.857 60.9432 240.735 60.9432C246.266 60.9432 250.236 62.3193 252.644 65.0715C255.079 67.7973 256.296 71.3698 256.296 75.7892C256.296 78.4884 255.793 80.9098 254.787 83.0534C253.808 85.1969 252.326 86.8906 250.342 88.1343C248.383 89.3781 245.975 90 243.117 90H230.653L230.177 88.6504ZM237.56 83.0534C237.56 84.9323 237.944 86.229 238.711 86.9435C239.505 87.6315 240.55 87.9756 241.847 87.9756C248.595 87.9756 251.969 83.887 251.969 75.7098C251.969 73.4869 251.585 71.4227 250.818 69.5174C250.051 67.612 248.873 66.0771 247.285 64.9127C245.724 63.7484 243.779 63.1662 241.45 63.1662C238.857 63.1662 237.56 63.7748 237.56 64.9921V83.0534ZM266.672 84.7206C266.672 85.5674 266.738 86.2025 266.871 86.6259C267.003 87.0493 267.241 87.3404 267.585 87.4992C267.956 87.658 268.498 87.7374 269.213 87.7374H273.5C274.452 87.7374 275.193 87.6448 275.723 87.4595C276.252 87.2478 276.662 86.9038 276.953 86.4274C277.271 85.9246 277.562 85.1837 277.826 84.2045L278.065 83.2915L279.414 83.7679V90.5557L278.62 90.9924L278.303 90.5557C278.012 90.1852 277.456 90 276.636 90H259.924L259.487 88.7298L260.321 88.4916C261.3 88.2005 261.948 87.83 262.266 87.3801C262.584 86.9303 262.742 86.1364 262.742 84.9984V69.4777C262.742 67.8899 262.61 66.6064 262.345 65.6273C262.081 64.6481 261.618 63.7219 260.956 62.8486L260.44 62.1341L260.956 61.499H273.103C275.379 61.499 276.887 61.2211 277.628 60.6654L278.342 60.1493L278.978 60.6654V67.7311L277.628 68.2074L277.39 67.2944C277.125 66.3153 276.834 65.5876 276.516 65.1112C276.225 64.6084 275.815 64.2644 275.286 64.0792C274.757 63.8674 274.016 63.7616 273.063 63.7616H269.213C268.498 63.7616 267.956 63.841 267.585 63.9998C267.241 64.1585 267.003 64.4496 266.871 64.8731C266.738 65.2965 266.672 65.9316 266.672 66.7784V74.3999H271.713C272.349 74.3999 272.904 74.2675 273.381 74.0029C273.883 73.7118 274.373 73.2355 274.849 72.5739L275.167 72.1372L275.961 72.5739V79.3617L274.611 79.8381L274.373 78.9251C274.135 78.0253 273.711 77.4299 273.103 77.1388C272.521 76.8213 271.502 76.6625 270.046 76.6625H266.672V84.7206Z" fill="white"/>
<defs>
<clipPath id="clip0_1437_2762">
<rect width="49.0296" height="52.5131" fill="white" transform="matrix(-0.00678374 0.999977 -0.999982 -0.00591356 167.422 53.7461)"/>
</clipPath>
</defs>
</svg>
