<svg width="40" height="40" viewBox="0 0 40 40" fill="none" xmlns="http://www.w3.org/2000/svg">
<path d="M20 36.6663C29.2047 36.6663 36.6667 29.2044 36.6667 19.9997C36.6667 10.7949 29.2047 3.33301 20 3.33301C10.7952 3.33301 3.33333 10.7949 3.33333 19.9997C3.33333 29.2044 10.7952 36.6663 20 36.6663Z" stroke="#37798A" stroke-width="2" stroke-linecap="round" stroke-linejoin="round"/>
<path d="M15.15 15C15.5418 13.8861 16.3152 12.9468 17.3333 12.3485C18.3513 11.7502 19.5482 11.5315 20.712 11.7312C21.8758 11.9308 22.9314 12.5358 23.6918 13.4392C24.4522 14.3425 24.8684 15.4858 24.8667 16.6666C24.8667 20 19.8667 21.6666 19.8667 21.6666" stroke="#37798A" stroke-width="2" stroke-linecap="round" stroke-linejoin="round"/>
<path d="M20 28.333H20.0167" stroke="#37798A" stroke-width="2" stroke-linecap="round" stroke-linejoin="round"/>
</svg>
