<svg width="25" height="24" viewBox="0 0 25 24" fill="none" xmlns="http://www.w3.org/2000/svg">
<path fill-rule="evenodd" clip-rule="evenodd" d="M14.0578 5.53472C13.1873 4.69936 11.8127 4.69936 10.9422 5.53472L6.31574 9.97405C6.20239 10.0828 6.12614 10.2245 6.0978 10.379C5.54367 13.4009 5.50277 16.4945 5.97681 19.53L6.08933 20.2505H9.06579V14.0391C9.06579 13.6249 9.40158 13.2891 9.81579 13.2891H15.1842C15.5984 13.2891 15.9342 13.6249 15.9342 14.0391V20.2505H18.9107L19.0232 19.53C19.4972 16.4945 19.4563 13.4009 18.9022 10.379C18.8739 10.2245 18.7976 10.0828 18.6843 9.97406L14.0578 5.53472ZM9.90363 4.4524C11.3546 3.06014 13.6454 3.06014 15.0964 4.4524L19.7228 8.89174C20.0634 9.21853 20.2925 9.64422 20.3776 10.1085C20.9621 13.2961 21.0053 16.5594 20.5052 19.7614L20.3245 20.9189C20.2497 21.3976 19.8374 21.7505 19.3529 21.7505H15.1842C14.77 21.7505 14.4342 21.4147 14.4342 21.0005V14.7891H10.5658V21.0005C10.5658 21.4147 10.23 21.7505 9.81579 21.7505H5.64706C5.16258 21.7505 4.75029 21.3976 4.67554 20.9189L4.49478 19.7614C3.99473 16.5594 4.03788 13.2961 4.62241 10.1085C4.70754 9.64422 4.93662 9.21853 5.27719 8.89173L9.90363 4.4524Z" fill="#2E666D" stroke="#2E666D" stroke-width="1.5"/>
</svg>
