<svg width="24" height="24" viewBox="0 0 24 24" fill="none" xmlns="http://www.w3.org/2000/svg">
<path d="M12 12C11.2044 12 10.4413 12.3161 9.87868 12.8787C9.31607 13.4413 9 14.2044 9 15C9 15.7956 9.31607 16.5587 9.87868 17.1213C10.4413 17.6839 11.2044 18 12 18C12.7956 18 13.5587 17.6839 14.1213 17.1213C14.6839 16.5587 15 15.7956 15 15C15 14.2044 14.6839 13.4413 14.1213 12.8787C13.5587 12.3161 12.7956 12 12 12ZM12 10C13.3261 10 14.5979 10.5268 15.5355 11.4645C16.4732 12.4021 17 13.6739 17 15C17 16.3261 16.4732 17.5979 15.5355 18.5355C14.5979 19.4732 13.3261 20 12 20C10.6739 20 9.40215 19.4732 8.46447 18.5355C7.52678 17.5979 7 16.3261 7 15C7 13.6739 7.52678 12.4021 8.46447 11.4645C9.40215 10.5268 10.6739 10 12 10ZM18.5 9.75C18.5 10.0815 18.3683 10.3995 18.1339 10.6339C17.8995 10.8683 17.5815 11 17.25 11C16.9185 11 16.6005 10.8683 16.3661 10.6339C16.1317 10.3995 16 10.0815 16 9.75C16 9.41848 16.1317 9.10054 16.3661 8.86612C16.6005 8.6317 16.9185 8.5 17.25 8.5C17.5815 8.5 17.8995 8.6317 18.1339 8.86612C18.3683 9.10054 18.5 9.41848 18.5 9.75ZM12 7C9.526 7 9.122 7.007 7.971 7.058C7.187 7.095 6.661 7.2 6.173 7.39C5.739 7.558 5.426 7.759 5.093 8.093C4.78001 8.3954 4.53935 8.76458 4.389 9.173C4.199 9.663 4.094 10.188 4.058 10.971C4.006 12.075 4 12.461 4 15C4 17.474 4.007 17.878 4.058 19.029C4.095 19.812 4.2 20.339 4.389 20.826C4.559 21.261 4.759 21.574 5.091 21.906C5.428 22.242 5.741 22.443 6.171 22.609C6.665 22.8 7.191 22.906 7.971 22.942C9.075 22.994 9.461 23 12 23C14.474 23 14.878 22.993 16.029 22.942C16.811 22.905 17.338 22.8 17.826 22.611C18.259 22.442 18.574 22.241 18.906 21.909C19.243 21.572 19.444 21.259 19.61 20.829C19.8 20.336 19.906 19.809 19.942 19.029C19.994 17.925 20 17.539 20 15C20 12.526 19.993 12.122 19.942 10.971C19.905 10.189 19.8 9.661 19.61 9.173C19.4593 8.765 19.2191 8.39596 18.907 8.093C18.6047 7.77985 18.2355 7.53917 17.827 7.389C17.337 7.199 16.811 7.094 16.029 7.058C14.925 7.006 14.539 7 12 7ZM12 5C14.717 5 15.056 5.01 16.122 5.06C17.187 5.11 17.912 5.277 18.55 5.525C19.21 5.779 19.766 6.123 20.322 6.678C20.8305 7.1779 21.224 7.78259 21.475 8.45C21.722 9.087 21.89 9.813 21.94 10.878C21.987 11.944 22 12.283 22 15C22 17.717 21.99 18.056 21.94 19.122C21.89 20.187 21.722 20.912 21.475 21.55C21.2247 22.2178 20.8311 22.8226 20.322 23.322C19.822 23.8303 19.2173 24.2238 18.55 24.475C17.913 24.722 17.187 24.89 16.122 24.94C15.056 24.987 14.717 25 12 25C9.283 25 8.944 24.99 7.878 24.94C6.813 24.89 6.088 24.722 5.45 24.475C4.78233 24.2245 4.17753 23.8309 3.678 23.322C3.16941 22.8222 2.77593 22.2175 2.525 21.55C2.277 20.913 2.11 20.187 2.06 19.122C2.013 18.056 2 17.717 2 15C2 12.283 2.01 11.944 2.06 10.878C2.11 9.812 2.277 9.088 2.525 8.45C2.77524 7.78218 3.1688 7.17732 3.678 6.678C4.17767 6.16923 4.78243 5.77573 5.45 5.525C6.088 5.277 6.812 5.11 7.878 5.06C8.944 5.013 9.283 5 12 5Z" fill="white"/>
</svg>
