<svg width="60" height="60" viewBox="0 0 60 60" fill="none" xmlns="http://www.w3.org/2000/svg">
<rect width="60" height="60" rx="4" fill="#F3FAFD"/>
<path d="M19.04 41.88L29.64 30.8C30.3867 30 30.9867 29.2933 31.44 28.68C31.92 28.04 32.2667 27.44 32.48 26.88C32.6933 26.2933 32.8 25.7067 32.8 25.12C32.8 23.9467 32.4133 23.0267 31.64 22.36C30.8933 21.6933 29.92 21.36 28.72 21.36C27.4933 21.36 26.4 21.68 25.44 22.32C24.5067 22.96 23.6267 23.9733 22.8 25.36L19.08 22.2C20.2 20.3067 21.5867 18.88 23.24 17.92C24.92 16.9333 26.84 16.44 29 16.44C30.84 16.44 32.44 16.8 33.8 17.52C35.1867 18.24 36.2533 19.24 37 20.52C37.7467 21.8 38.12 23.2933 38.12 25C38.12 26.1467 37.9733 27.1867 37.68 28.12C37.4133 29.0533 36.9467 29.9867 36.28 30.92C35.64 31.8267 34.7467 32.8533 33.6 34L25.88 41.88H19.04ZM19.04 45V41.88L23.68 40.28H38.72V45H19.04Z" fill="#2E666D"/>
</svg>
