<svg width="60" height="60" viewBox="0 0 60 60" fill="none" xmlns="http://www.w3.org/2000/svg">
<rect width="60" height="60" rx="4" fill="#F3FAFD"/>
<path d="M28.96 45.4C27.0667 45.4 25.3333 45.0667 23.76 44.4C22.1867 43.7067 20.8667 42.72 19.8 41.44L23.4 37.88C23.9333 38.68 24.6933 39.32 25.68 39.8C26.6667 40.28 27.7333 40.52 28.88 40.52C29.9467 40.52 30.8667 40.3333 31.64 39.96C32.4133 39.56 33.0133 39.0133 33.44 38.32C33.8933 37.6 34.12 36.7733 34.12 35.84C34.12 34.8533 33.8933 34.0133 33.44 33.32C33.0133 32.6267 32.3867 32.0933 31.56 31.72C30.7333 31.3467 29.7467 31.16 28.6 31.16C28.0933 31.16 27.5733 31.2 27.04 31.28C26.5067 31.3333 26.0533 31.4267 25.68 31.56L28.08 28.52C28.7467 28.3067 29.4 28.1333 30.04 28C30.7067 27.84 31.32 27.76 31.88 27.76C33.32 27.76 34.6133 28.1067 35.76 28.8C36.9333 29.4667 37.8533 30.4267 38.52 31.68C39.2133 32.9067 39.56 34.36 39.56 36.04C39.56 37.9067 39.12 39.5467 38.24 40.96C37.36 42.3467 36.12 43.44 34.52 44.24C32.9467 45.0133 31.0933 45.4 28.96 45.4ZM25.68 31.56V28.44L32.88 20.08L39.12 20L31.68 28.52L25.68 31.56ZM21.36 21.6V16.88H39.12V20L34.68 21.6H21.36Z" fill="#2E666D"/>
</svg>
