<svg width="325" height="325" viewBox="0 0 325 325" fill="none" xmlns="http://www.w3.org/2000/svg">
<path d="M90.2778 90.2773H108.333V108.333H90.2778V90.2773ZM90.2778 216.666H108.333V234.722H90.2778V216.666ZM216.667 90.2773H234.722V108.333H216.667V90.2773Z" fill="#214953"/>
<path d="M54.1667 54.166H270.833V270.833H54.1667V54.166Z" fill="#FDFDFD" stroke="#214953" stroke-width="2" stroke-linejoin="round"/>
<path d="M90.2778 90.2773H108.333V108.333H90.2778V90.2773ZM90.2778 216.666H108.333V234.722H90.2778V216.666ZM216.667 90.2773H234.722V108.333H216.667V90.2773Z" fill="#3A3B3D" stroke="#214953" stroke-width="2" stroke-linejoin="round"/>
<path d="M81.25 185.069C83.7429 185.069 85.7639 183.048 85.7639 180.555C85.7639 178.062 83.7429 176.041 81.25 176.041C78.757 176.041 76.7361 178.062 76.7361 180.555C76.7361 183.048 78.757 185.069 81.25 185.069Z" fill="#214953"/>
<path d="M72.2221 176.041C74.7151 176.041 76.736 174.021 76.736 171.528C76.736 169.035 74.7151 167.014 72.2221 167.014C69.7292 167.014 67.7083 169.035 67.7083 171.528C67.7083 174.021 69.7292 176.041 72.2221 176.041Z" fill="#214953"/>
<path d="M90.2778 176.041C92.7708 176.041 94.7917 174.021 94.7917 171.528C94.7917 169.035 92.7708 167.014 90.2778 167.014C87.7849 167.014 85.7639 169.035 85.7639 171.528C85.7639 174.021 87.7849 176.041 90.2778 176.041Z" fill="#214953"/>
<path d="M153.472 212.153C155.965 212.153 157.986 210.132 157.986 207.639C157.986 205.146 155.965 203.125 153.472 203.125C150.979 203.125 148.958 205.146 148.958 207.639C148.958 210.132 150.979 212.153 153.472 212.153Z" fill="#214953"/>
<path d="M180.556 176.041C183.049 176.041 185.07 174.021 185.07 171.528C185.07 169.035 183.049 167.014 180.556 167.014C178.063 167.014 176.042 169.035 176.042 171.528C176.042 174.021 178.063 176.041 180.556 176.041Z" fill="#214953"/>
<path d="M180.556 130.903C183.049 130.903 185.07 128.882 185.07 126.389C185.07 123.896 183.049 121.875 180.556 121.875C178.063 121.875 176.042 123.896 176.042 126.389C176.042 128.882 178.063 130.903 180.556 130.903Z" fill="#214953"/>
<path d="M144.445 76.7368C146.938 76.7368 148.958 74.7158 148.958 72.2229C148.958 69.7299 146.938 67.709 144.445 67.709C141.952 67.709 139.931 69.7299 139.931 72.2229C139.931 74.7158 141.952 76.7368 144.445 76.7368Z" fill="#214953"/>
<path d="M207.639 148.957C210.132 148.957 212.153 146.937 212.153 144.444C212.153 141.951 210.132 139.93 207.639 139.93C205.146 139.93 203.125 141.951 203.125 144.444C203.125 146.937 205.146 148.957 207.639 148.957Z" fill="#214953"/>
<path d="M234.722 148.957C237.215 148.957 239.236 146.937 239.236 144.444C239.236 141.951 237.215 139.93 234.722 139.93C232.229 139.93 230.208 141.951 230.208 144.444C230.208 146.937 232.229 148.957 234.722 148.957Z" fill="#214953"/>
<path d="M234.722 203.125C237.215 203.125 239.236 201.104 239.236 198.612C239.236 196.119 237.215 194.098 234.722 194.098C232.229 194.098 230.208 196.119 230.208 198.612C230.208 201.104 232.229 203.125 234.722 203.125Z" fill="#214953"/>
<path d="M243.75 221.18C246.243 221.18 248.264 219.159 248.264 216.666C248.264 214.173 246.243 212.152 243.75 212.152C241.257 212.152 239.236 214.173 239.236 216.666C239.236 219.159 241.257 221.18 243.75 221.18Z" fill="#214953"/>
<path d="M252.778 257.291C255.271 257.291 257.292 255.271 257.292 252.778C257.292 250.285 255.271 248.264 252.778 248.264C250.285 248.264 248.264 250.285 248.264 252.778C248.264 255.271 250.285 257.291 252.778 257.291Z" fill="#214953"/>
<path d="M144.445 257.291C146.938 257.291 148.958 255.271 148.958 252.778C148.958 250.285 146.938 248.264 144.445 248.264C141.952 248.264 139.931 250.285 139.931 252.778C139.931 255.271 141.952 257.291 144.445 257.291Z" fill="#214953"/>
<path d="M198.611 257.291C201.104 257.291 203.125 255.271 203.125 252.778C203.125 250.285 201.104 248.264 198.611 248.264C196.118 248.264 194.097 250.285 194.097 252.778C194.097 255.271 196.118 257.291 198.611 257.291Z" fill="#214953"/>
<path d="M207.639 248.264C210.132 248.264 212.153 246.243 212.153 243.75C212.153 241.257 210.132 239.236 207.639 239.236C205.146 239.236 203.125 241.257 203.125 243.75C203.125 246.243 205.146 248.264 207.639 248.264Z" fill="#214953"/>
<path d="M198.611 239.237C201.104 239.237 203.125 237.216 203.125 234.723C203.125 232.23 201.104 230.209 198.611 230.209C196.118 230.209 194.097 232.23 194.097 234.723C194.097 237.216 196.118 239.237 198.611 239.237Z" fill="#214953"/>
<path d="M72.2221 148.957C74.7151 148.957 76.736 146.937 76.736 144.444C76.736 141.951 74.7151 139.93 72.2221 139.93C69.7292 139.93 67.7083 141.951 67.7083 144.444C67.7083 146.937 69.7292 148.957 72.2221 148.957Z" fill="#214953"/>
<path d="M180.556 248.264C183.049 248.264 185.07 246.243 185.07 243.75C185.07 241.257 183.049 239.236 180.556 239.236C178.063 239.236 176.042 241.257 176.042 243.75C176.042 246.243 178.063 248.264 180.556 248.264Z" fill="#214953"/>
<path d="M54.1667 54.166H270.833V270.833H54.1667V54.166Z" stroke="#214953" stroke-width="2" stroke-linejoin="round"/>
<path d="M72.2222 72.2227H126.389V126.389H72.2222V72.2227Z" stroke="#214953" stroke-width="2" stroke-linejoin="round"/>
<path d="M90.2777 90.2773H108.333V108.333H90.2777V90.2773ZM72.2222 198.611H126.389V252.777H72.2222V198.611Z" stroke="#214953" stroke-width="2" stroke-linejoin="round"/>
<path d="M90.2778 216.667H108.333V234.723H90.2778V216.667ZM198.611 72.2227H252.778V126.389H198.611V72.2227Z" stroke="#214953" stroke-width="2" stroke-linejoin="round"/>
<path d="M216.667 90.2773H234.722V108.333H216.667V90.2773Z" stroke="#214953" stroke-width="2" stroke-linejoin="round"/>
<path d="M162.5 90.2782H144.444M81.25 162.5V153.473H117.361L81.25 162.5ZM90.2778 153.473V144.445V153.473ZM108.333 153.473V180.556V153.473ZM108.333 171.528H117.361H108.333ZM171.528 144.445V135.417V144.445ZM252.778 153.473H243.75H252.778ZM189.583 189.584H198.611V180.556L189.583 189.584ZM126.389 144.445H135.417H126.389ZM153.472 144.445H180.556H153.472ZM171.528 72.2227V90.2782H162.5V126.389L171.528 72.2227ZM162.5 117.362H144.444V126.389L162.5 117.362Z" stroke="#214953" stroke-width="2" stroke-linecap="round" stroke-linejoin="round"/>
<path d="M144.444 198.611V189.583H171.528V216.667H189.583V207.639H225.694V252.778M162.5 99.3056H153.472V81.25L162.5 99.3056ZM126.389 162.5H162.5H126.389ZM135.417 162.5V180.556H126.389L135.417 162.5ZM153.472 162.5V171.528V162.5Z" stroke="#214953" stroke-width="2" stroke-linecap="round" stroke-linejoin="round"/>
<path d="M180.555 99.3047V108.332M162.5 180.555V198.61H189.583L162.5 180.555ZM207.639 180.555H189.583V216.666H198.611L207.639 180.555ZM216.667 153.471V171.527H225.694V189.582H216.667V207.638V153.471ZM225.694 171.527V162.499H234.722L225.694 171.527ZM234.722 225.694H216.667V234.721L234.722 225.694ZM144.444 234.721H153.472V243.749H162.5V225.694L144.444 234.721ZM252.778 144.444V171.527H243.75L252.778 144.444ZM198.611 162.499V153.471V162.499ZM252.778 189.582V198.61V189.582ZM243.75 234.721H252.778H243.75Z" stroke="#214953" stroke-width="2" stroke-linecap="round" stroke-linejoin="round"/>
</svg>
