<svg width="64" height="64" viewBox="0 0 64 64" fill="none" xmlns="http://www.w3.org/2000/svg">
<rect x="0.5" y="0.5" width="63" height="63" rx="31.5" fill="white"/>
<rect x="0.5" y="0.5" width="63" height="63" rx="31.5" stroke="#1E4448"/>
<g clip-path="url(#clip0_1295_1100)">
<path d="M32.0001 22C33.8566 22 35.6371 22.7375 36.9498 24.0503C38.2626 25.363 39.0001 27.1435 39.0001 29H40.0741C40.326 29 40.5686 29.0951 40.7534 29.2662C40.9382 29.4373 41.0517 29.6719 41.0711 29.923L41.9171 40.923C41.9375 41.1874 41.852 41.4491 41.6795 41.6505C41.507 41.8519 41.2615 41.9766 40.9971 41.997L40.9201 42H23.0801C22.8149 42 22.5605 41.8946 22.373 41.7071C22.1854 41.5196 22.0801 41.2652 22.0801 41L22.0831 40.923L22.9291 29.923C22.9485 29.6719 23.0619 29.4373 23.2468 29.2662C23.4316 29.0951 23.6742 29 23.9261 29H25.0001C25.0001 27.1435 25.7376 25.363 27.0503 24.0503C28.3631 22.7375 30.1436 22 32.0001 22ZM39.1471 31H24.8521L24.1591 40H39.8401L39.1471 31ZM34.0001 33V35H30.0001V33H34.0001ZM32.0001 24C30.7116 24.0001 29.4729 24.4975 28.5423 25.3887C27.6117 26.2798 27.061 27.4958 27.0051 28.783L27.0001 29H37.0001C37 27.7115 36.5025 26.4728 35.6114 25.5422C34.7203 24.6116 33.5043 24.0609 32.2171 24.005L32.0001 24Z" fill="#5BCCD9"/>
</g>
<defs>
<clipPath id="clip0_1295_1100">
<rect width="24" height="24" fill="white" transform="translate(20 20)"/>
</clipPath>
</defs>
</svg>
