<svg width="26" height="29" viewBox="0 0 26 29" fill="none" xmlns="http://www.w3.org/2000/svg">
<path fill-rule="evenodd" clip-rule="evenodd" d="M5.91666 7.50033C5.91666 3.58831 9.08798 0.416992 13 0.416992C16.912 0.416992 20.0833 3.58831 20.0833 7.50033C20.0833 11.4123 16.912 14.5837 13 14.5837C9.08798 14.5837 5.91666 11.4123 5.91666 7.50033ZM13 2.91699C10.4687 2.91699 8.41666 4.96902 8.41666 7.50033C8.41666 10.0316 10.4687 12.0837 13 12.0837C15.5313 12.0837 17.5833 10.0316 17.5833 7.50033C17.5833 4.96902 15.5313 2.91699 13 2.91699Z" fill="#37798A"/>
<path fill-rule="evenodd" clip-rule="evenodd" d="M6.33333 19.5837C4.26226 19.5837 2.58333 21.2626 2.58333 23.3337V25.3141C2.58333 25.3443 2.60518 25.37 2.63494 25.3749C9.49954 26.4956 16.5005 26.4956 23.365 25.3749C23.3948 25.37 23.4167 25.3443 23.4167 25.3141V23.3337C23.4167 21.2626 21.7377 19.5837 19.6667 19.5837H19.0985C19.0546 19.5837 19.011 19.5906 18.9692 19.6042L17.5267 20.0753C14.5853 21.0357 11.4147 21.0357 8.4733 20.0753L7.03078 19.6042C6.98902 19.5906 6.94537 19.5837 6.90144 19.5837H6.33333ZM0.0833282 23.3337C0.0833282 19.8819 2.88155 17.0837 6.33333 17.0837H6.90144C7.20893 17.0837 7.51448 17.1323 7.80678 17.2277L9.24931 17.6988C11.6864 18.4946 14.3135 18.4946 16.7507 17.6988L18.1932 17.2277C18.4855 17.1323 18.7911 17.0837 19.0985 17.0837H19.6667C23.1184 17.0837 25.9167 19.8819 25.9167 23.3337V25.3141C25.9167 26.5695 25.0069 27.6399 23.7679 27.8422C16.6365 29.0065 9.36349 29.0065 2.23211 27.8422C0.993134 27.6399 0.0833282 26.5695 0.0833282 25.3141V23.3337Z" fill="#37798A"/>
</svg>
