<svg width="25" height="24" viewBox="0 0 25 24" fill="none" xmlns="http://www.w3.org/2000/svg">
<path fill-rule="evenodd" clip-rule="evenodd" d="M9.42918 4.46984C8.15796 4.32776 6.84205 4.32776 5.57084 4.46984C5.26195 4.50436 5.01835 4.74895 4.98361 5.04601C4.8318 6.34395 4.8318 7.65516 4.98361 8.9531C5.01835 9.25016 5.26195 9.49475 5.57084 9.52927C6.84206 9.67135 8.15796 9.67135 9.42918 9.52927C9.73807 9.49475 9.98167 9.25016 10.0164 8.9531C10.1682 7.65516 10.1682 6.34395 10.0164 5.04601C9.98167 4.74895 9.73807 4.50436 9.42918 4.46984ZM5.40423 2.97912C6.78617 2.82467 8.21384 2.82467 9.59579 2.97912C10.5866 3.08986 11.3891 3.86985 11.5063 4.87176C11.6716 6.28547 11.6716 7.71364 11.5063 9.12735C11.3891 10.1293 10.5866 10.9093 9.59579 11.02C8.21384 11.1744 6.78617 11.1744 5.40423 11.02C4.41339 10.9093 3.61094 10.1293 3.49376 9.12735C3.32841 7.71364 3.32841 6.28547 3.49376 4.87176C3.61094 3.86985 4.41339 3.08986 5.40423 2.97912Z" fill="#2E666D"/>
<path fill-rule="evenodd" clip-rule="evenodd" d="M9.42918 14.4698C8.15796 14.3278 6.84205 14.3278 5.57084 14.4698C5.26195 14.5044 5.01835 14.749 4.98361 15.046C4.8318 16.344 4.8318 17.6552 4.98361 18.9531C5.01835 19.2502 5.26195 19.4948 5.57084 19.5293C6.84206 19.6714 8.15796 19.6714 9.42918 19.5293C9.73807 19.4948 9.98167 19.2502 10.0164 18.9531C10.1682 17.6552 10.1682 16.344 10.0164 15.046C9.98167 14.749 9.73807 14.5044 9.42918 14.4698ZM5.40423 12.9791C6.78617 12.8247 8.21384 12.8247 9.59579 12.9791C10.5866 13.0899 11.3891 13.8698 11.5063 14.8718C11.6716 16.2855 11.6716 17.7136 11.5063 19.1274C11.3891 20.1293 10.5866 20.9093 9.59579 21.02C8.21384 21.1744 6.78617 21.1744 5.40423 21.02C4.41339 20.9093 3.61094 20.1293 3.49376 19.1274C3.32841 17.7136 3.32841 16.2855 3.49376 14.8718C3.61094 13.8699 4.41339 13.0899 5.40423 12.9791Z" fill="#2E666D"/>
<path fill-rule="evenodd" clip-rule="evenodd" d="M19.4292 4.46984C18.158 4.32776 16.8421 4.32776 15.5708 4.46984C15.2619 4.50436 15.0183 4.74895 14.9836 5.04601C14.8318 6.34395 14.8318 7.65516 14.9836 8.9531C15.0183 9.25016 15.2619 9.49475 15.5708 9.52927C16.8421 9.67135 18.158 9.67135 19.4292 9.52927C19.7381 9.49475 19.9817 9.25016 20.0164 8.9531C20.1682 7.65516 20.1682 6.34395 20.0164 5.04601C19.9817 4.74895 19.7381 4.50436 19.4292 4.46984ZM15.4042 2.97912C16.7862 2.82467 18.2138 2.82467 19.5958 2.97912C20.5866 3.08986 21.3891 3.86985 21.5063 4.87176C21.6716 6.28547 21.6716 7.71364 21.5063 9.12735C21.3891 10.1293 20.5866 10.9093 19.5958 11.02C18.2138 11.1744 16.7862 11.1744 15.4042 11.02C14.4134 10.9093 13.6109 10.1293 13.4938 9.12735C13.3284 7.71364 13.3284 6.28547 13.4938 4.87176C13.6109 3.86985 14.4134 3.08986 15.4042 2.97912Z" fill="#2E666D"/>
<path fill-rule="evenodd" clip-rule="evenodd" d="M19.4292 14.4698C18.158 14.3278 16.8421 14.3278 15.5708 14.4698C15.2619 14.5044 15.0183 14.749 14.9836 15.046C14.8318 16.344 14.8318 17.6552 14.9836 18.9531C15.0183 19.2502 15.2619 19.4948 15.5708 19.5293C16.8421 19.6714 18.158 19.6714 19.4292 19.5293C19.7381 19.4948 19.9817 19.2502 20.0164 18.9531C20.1682 17.6552 20.1682 16.344 20.0164 15.046C19.9817 14.749 19.7381 14.5044 19.4292 14.4698ZM15.4042 12.9791C16.7862 12.8247 18.2138 12.8247 19.5958 12.9791C20.5866 13.0899 21.3891 13.8698 21.5063 14.8718C21.6716 16.2855 21.6716 17.7136 21.5063 19.1274C21.3891 20.1293 20.5866 20.9093 19.5958 21.02C18.2138 21.1744 16.7862 21.1744 15.4042 21.02C14.4134 20.9093 13.6109 20.1293 13.4938 19.1274C13.3284 17.7136 13.3284 16.2855 13.4938 14.8718C13.6109 13.8699 14.4134 13.0899 15.4042 12.9791Z" fill="#2E666D"/>
<path fill-rule="evenodd" clip-rule="evenodd" d="M9.42918 4.46984C8.15796 4.32776 6.84205 4.32776 5.57084 4.46984C5.26195 4.50436 5.01835 4.74895 4.98361 5.04601C4.8318 6.34395 4.8318 7.65516 4.98361 8.9531C5.01835 9.25016 5.26195 9.49475 5.57084 9.52927C6.84206 9.67135 8.15796 9.67135 9.42918 9.52927C9.73807 9.49475 9.98167 9.25016 10.0164 8.9531C10.1682 7.65516 10.1682 6.34395 10.0164 5.04601C9.98167 4.74895 9.73807 4.50436 9.42918 4.46984ZM5.40423 2.97912C6.78617 2.82467 8.21384 2.82467 9.59579 2.97912C10.5866 3.08986 11.3891 3.86985 11.5063 4.87176C11.6716 6.28547 11.6716 7.71364 11.5063 9.12735C11.3891 10.1293 10.5866 10.9093 9.59579 11.02C8.21384 11.1744 6.78617 11.1744 5.40423 11.02C4.41339 10.9093 3.61094 10.1293 3.49376 9.12735C3.32841 7.71364 3.32841 6.28547 3.49376 4.87176C3.61094 3.86985 4.41339 3.08986 5.40423 2.97912Z" stroke="#2E666D" stroke-width="1.5"/>
<path fill-rule="evenodd" clip-rule="evenodd" d="M9.42918 14.4698C8.15796 14.3278 6.84205 14.3278 5.57084 14.4698C5.26195 14.5044 5.01835 14.749 4.98361 15.046C4.8318 16.344 4.8318 17.6552 4.98361 18.9531C5.01835 19.2502 5.26195 19.4948 5.57084 19.5293C6.84206 19.6714 8.15796 19.6714 9.42918 19.5293C9.73807 19.4948 9.98167 19.2502 10.0164 18.9531C10.1682 17.6552 10.1682 16.344 10.0164 15.046C9.98167 14.749 9.73807 14.5044 9.42918 14.4698ZM5.40423 12.9791C6.78617 12.8247 8.21384 12.8247 9.59579 12.9791C10.5866 13.0899 11.3891 13.8698 11.5063 14.8718C11.6716 16.2855 11.6716 17.7136 11.5063 19.1274C11.3891 20.1293 10.5866 20.9093 9.59579 21.02C8.21384 21.1744 6.78617 21.1744 5.40423 21.02C4.41339 20.9093 3.61094 20.1293 3.49376 19.1274C3.32841 17.7136 3.32841 16.2855 3.49376 14.8718C3.61094 13.8699 4.41339 13.0899 5.40423 12.9791Z" stroke="#2E666D" stroke-width="1.5"/>
<path fill-rule="evenodd" clip-rule="evenodd" d="M19.4292 4.46984C18.158 4.32776 16.8421 4.32776 15.5708 4.46984C15.2619 4.50436 15.0183 4.74895 14.9836 5.04601C14.8318 6.34395 14.8318 7.65516 14.9836 8.9531C15.0183 9.25016 15.2619 9.49475 15.5708 9.52927C16.8421 9.67135 18.158 9.67135 19.4292 9.52927C19.7381 9.49475 19.9817 9.25016 20.0164 8.9531C20.1682 7.65516 20.1682 6.34395 20.0164 5.04601C19.9817 4.74895 19.7381 4.50436 19.4292 4.46984ZM15.4042 2.97912C16.7862 2.82467 18.2138 2.82467 19.5958 2.97912C20.5866 3.08986 21.3891 3.86985 21.5063 4.87176C21.6716 6.28547 21.6716 7.71364 21.5063 9.12735C21.3891 10.1293 20.5866 10.9093 19.5958 11.02C18.2138 11.1744 16.7862 11.1744 15.4042 11.02C14.4134 10.9093 13.6109 10.1293 13.4938 9.12735C13.3284 7.71364 13.3284 6.28547 13.4938 4.87176C13.6109 3.86985 14.4134 3.08986 15.4042 2.97912Z" stroke="#2E666D" stroke-width="1.5"/>
<path fill-rule="evenodd" clip-rule="evenodd" d="M19.4292 14.4698C18.158 14.3278 16.8421 14.3278 15.5708 14.4698C15.2619 14.5044 15.0183 14.749 14.9836 15.046C14.8318 16.344 14.8318 17.6552 14.9836 18.9531C15.0183 19.2502 15.2619 19.4948 15.5708 19.5293C16.8421 19.6714 18.158 19.6714 19.4292 19.5293C19.7381 19.4948 19.9817 19.2502 20.0164 18.9531C20.1682 17.6552 20.1682 16.344 20.0164 15.046C19.9817 14.749 19.7381 14.5044 19.4292 14.4698ZM15.4042 12.9791C16.7862 12.8247 18.2138 12.8247 19.5958 12.9791C20.5866 13.0899 21.3891 13.8698 21.5063 14.8718C21.6716 16.2855 21.6716 17.7136 21.5063 19.1274C21.3891 20.1293 20.5866 20.9093 19.5958 21.02C18.2138 21.1744 16.7862 21.1744 15.4042 21.02C14.4134 20.9093 13.6109 20.1293 13.4938 19.1274C13.3284 17.7136 13.3284 16.2855 13.4938 14.8718C13.6109 13.8699 14.4134 13.0899 15.4042 12.9791Z" stroke="#2E666D" stroke-width="1.5"/>
</svg>
