<svg width="24" height="24" viewBox="0 0 24 24" fill="none" xmlns="http://www.w3.org/2000/svg">
<g clip-path="url(#clip0_2_1113)">
<path d="M12 12.55C12.917 11.613 14.111 11 15.5 11C16.9587 11 18.3576 11.5795 19.3891 12.6109C20.4205 13.6424 21 15.0413 21 16.5V24H19V16.5C19 15.5717 18.6313 14.6815 17.9749 14.0251C17.3185 13.3687 16.4283 13 15.5 13C14.5717 13 13.6815 13.3687 13.0251 14.0251C12.3687 14.6815 12 15.5717 12 16.5V24H10V11.5H12V12.55ZM5 9.5C4.60218 9.5 4.22064 9.34196 3.93934 9.06066C3.65804 8.77936 3.5 8.39782 3.5 8C3.5 7.60218 3.65804 7.22064 3.93934 6.93934C4.22064 6.65804 4.60218 6.5 5 6.5C5.39782 6.5 5.77936 6.65804 6.06066 6.93934C6.34196 7.22064 6.5 7.60218 6.5 8C6.5 8.39782 6.34196 8.77936 6.06066 9.06066C5.77936 9.34196 5.39782 9.5 5 9.5ZM4 11.5H6V24H4V11.5Z" fill="white"/>
</g>
<defs>
<clipPath id="clip0_2_1113">
<rect width="24" height="24" fill="white"/>
</clipPath>
</defs>
</svg>
