<svg width="24" height="24" viewBox="0 0 24 24" fill="none" xmlns="http://www.w3.org/2000/svg">
<g clip-path="url(#clip0_2_1109)">
<path d="M15.2995 8.55011C14.5395 8.54999 13.8098 8.84824 13.2674 9.38068C12.7251 9.91313 12.4134 10.6372 12.3995 11.3971L12.3715 12.9721C12.3699 13.0567 12.3504 13.1399 12.3143 13.2164C12.2782 13.2929 12.2264 13.3609 12.1622 13.416C12.098 13.471 12.0228 13.5119 11.9417 13.5359C11.8606 13.5599 11.7754 13.5664 11.6915 13.5551L10.1305 13.3431C8.07653 13.0631 6.10853 12.1171 4.22053 10.5441C3.62253 13.8541 4.79053 16.1471 7.60353 17.9161L9.35053 19.0141C9.43354 19.0663 9.5025 19.138 9.55138 19.223C9.60026 19.308 9.62757 19.4036 9.63093 19.5016C9.63428 19.5996 9.61358 19.6969 9.57062 19.785C9.52767 19.8731 9.46378 19.9494 9.38453 20.0071L7.79253 21.1701C8.73953 21.2291 9.63853 21.1871 10.3845 21.0391C15.1025 20.0971 18.2395 16.5471 18.2395 10.6911C18.2395 10.2131 17.2275 8.55011 15.2995 8.55011ZM10.3995 11.3601C10.417 10.3962 10.7184 9.45878 11.2661 8.66534C11.8138 7.87189 12.5833 7.25763 13.4784 6.89948C14.3736 6.54133 15.3544 6.45519 16.2983 6.65186C17.2421 6.84853 18.107 7.31926 18.7845 8.00511C19.4955 8.00011 20.1005 8.18011 21.4535 7.36011C21.1185 9.00011 20.9535 9.71211 20.2395 10.6911C20.2395 18.3331 15.5425 22.0491 10.7765 23.0001C7.50853 23.6521 2.75653 22.5811 1.39453 21.1591C2.08853 21.1051 4.90853 20.8021 6.53853 19.6091C5.15953 18.7001 -0.329469 15.4701 3.27753 6.78611C4.97053 8.76311 6.68753 10.1091 8.42753 10.8231C9.58553 11.2981 9.86953 11.2881 10.4005 11.3611L10.3995 11.3601Z" fill="white"/>
</g>
<defs>
<clipPath id="clip0_2_1109">
<rect width="24" height="24" fill="white"/>
</clipPath>
</defs>
</svg>
