<svg width="40" height="40" viewBox="0 0 40 40" fill="none" xmlns="http://www.w3.org/2000/svg">
<path fill-rule="evenodd" clip-rule="evenodd" d="M20 5.13211L16.312 8.94794C15.9195 9.35409 15.3788 9.58344 14.814 9.58344H9.58333V14.8141C9.58333 15.3789 9.35398 15.9196 8.94783 16.3121L5.132 20.0001L8.94783 23.6881C9.35398 24.0807 9.58333 24.6213 9.58333 25.1861V30.4168H14.814C15.3788 30.4168 15.9195 30.6461 16.312 31.0523L20 34.8681L23.688 31.0523C24.0805 30.6461 24.6212 30.4168 25.186 30.4168H30.4167V25.1861C30.4167 24.6213 30.646 24.0806 31.0522 23.6881L34.868 20.0001L31.0522 16.3121C30.646 15.9196 30.4167 15.3789 30.4167 14.8141V9.58344H25.186C24.6212 9.58344 24.0805 9.35409 23.688 8.94794L20 5.13211ZM18.502 3.08472C19.3209 2.23738 20.6791 2.23739 21.498 3.08472L25.3628 7.08344H30.8333C31.9839 7.08344 32.9167 8.01618 32.9167 9.16677V14.6373L36.9154 18.5021C37.7627 19.321 37.7627 20.6792 36.9154 21.4981L32.9167 25.3629V30.8334C32.9167 31.984 31.9839 32.9168 30.8333 32.9168H25.3628L21.498 36.9155C20.6791 37.7628 19.3209 37.7628 18.502 36.9155L14.6372 32.9168H9.16667C8.01607 32.9168 7.08333 31.984 7.08333 30.8334V25.3629L3.08461 21.4981C2.23728 20.6792 2.23728 19.321 3.08461 18.5021L7.08333 14.6373V9.16677C7.08333 8.01618 8.01608 7.08344 9.16667 7.08344H14.6372L18.502 3.08472Z" fill="#37798A"/>
<path fill-rule="evenodd" clip-rule="evenodd" d="M12.0833 20.0001C12.0833 15.6279 15.6277 12.0834 20 12.0834C24.3723 12.0834 27.9167 15.6279 27.9167 20.0001C27.9167 24.3724 24.3723 27.9168 20 27.9168C15.6277 27.9168 12.0833 24.3724 12.0833 20.0001ZM20 14.5834C17.0085 14.5834 14.5833 17.0086 14.5833 20.0001C14.5833 22.9916 17.0085 25.4168 20 25.4168C22.9915 25.4168 25.4167 22.9916 25.4167 20.0001C25.4167 17.0086 22.9915 14.5834 20 14.5834Z" fill="#37798A"/>
</svg>
