<svg width="30" height="30" viewBox="0 0 30 30" fill="none" xmlns="http://www.w3.org/2000/svg">
<path d="M19.3748 19.375H24.9998V21.625H21.6248V25H19.3748V19.375ZM8.12476 8.125H2.49976V5.875H5.87476V2.5H8.12476V8.125ZM20.9093 17.728L19.3185 16.135L20.9093 14.5443C21.4353 14.0228 21.8532 13.4025 22.139 12.719C22.4247 12.0356 22.5726 11.3025 22.5742 10.5617C22.5758 9.82095 22.4311 9.08717 22.1484 8.40249C21.8657 7.71781 21.4505 7.09571 20.9267 6.57192C20.4029 6.04812 19.7808 5.63294 19.0961 5.35022C18.4115 5.06749 17.6777 4.92278 16.9369 4.92441C16.1962 4.92603 15.463 5.07395 14.7796 5.35967C14.0961 5.64539 13.4759 6.06329 12.9544 6.58938L11.3636 8.18125L9.77176 6.5905L11.3648 4.99975C12.8417 3.52283 14.8448 2.6931 16.9335 2.6931C19.0222 2.6931 21.0253 3.52283 22.5023 4.99975C23.9792 6.47667 24.8089 8.47981 24.8089 10.5685C24.8089 12.6572 23.9792 14.6603 22.5023 16.1372L20.9104 17.728H20.9093ZM17.7278 20.9095L16.1359 22.5002C14.659 23.9772 12.6558 24.8069 10.5671 24.8069C8.47844 24.8069 6.47531 23.9772 4.99838 22.5002C3.52146 21.0233 2.69173 19.0202 2.69173 16.9315C2.69173 14.8428 3.52146 12.8397 4.99838 11.3628L6.59026 9.772L8.18101 11.365L6.59026 12.9557C6.06417 13.4772 5.64627 14.0975 5.36055 14.781C5.07483 15.4644 4.92691 16.1975 4.92529 16.9383C4.92367 17.679 5.06837 18.4128 5.3511 19.0975C5.63382 19.7822 6.049 20.4043 6.5728 20.9281C7.09659 21.4519 7.71869 21.8671 8.40337 22.1498C9.08805 22.4325 9.82183 22.5772 10.5626 22.5756C11.3033 22.574 12.0365 22.4261 12.7199 22.1403C13.4034 21.8546 14.0236 21.4367 14.5451 20.9106L16.1359 19.3199L17.7278 20.9106V20.9095ZM16.9313 8.97662L18.5231 10.5685L10.5683 18.5223L8.97638 16.9315L16.9313 8.97775V8.97662Z" fill="#1D1616"/>
</svg>
