<svg width="64" height="64" viewBox="0 0 64 64" fill="none" xmlns="http://www.w3.org/2000/svg">
<rect x="0.5" y="0.5" width="63" height="63" rx="31.5" fill="white"/>
<rect x="0.5" y="0.5" width="63" height="63" rx="31.5" stroke="#1E4448"/>
<g clip-path="url(#clip0_1301_2786)">
<path d="M40 37H38V35C38 34.2044 37.6839 33.4413 37.1213 32.8787C36.5587 32.3161 35.7956 32 35 32H29C28.2044 32 27.4413 32.3161 26.8787 32.8787C26.3161 33.4413 26 34.2044 26 35V37H24V35C24 33.6739 24.5268 32.4021 25.4645 31.4645C26.4021 30.5268 27.6739 30 29 30H35C36.3261 30 37.5979 30.5268 38.5355 31.4645C39.4732 32.4021 40 33.6739 40 35V37ZM32 28C31.2121 28 30.4319 27.8448 29.7039 27.5433C28.9759 27.2417 28.3145 26.7998 27.7574 26.2426C27.2002 25.6855 26.7583 25.0241 26.4567 24.2961C26.1552 23.5681 26 22.7879 26 22C26 21.2121 26.1552 20.4319 26.4567 19.7039C26.7583 18.9759 27.2002 18.3145 27.7574 17.7574C28.3145 17.2002 28.9759 16.7583 29.7039 16.4567C30.4319 16.1552 31.2121 16 32 16C33.5913 16 35.1174 16.6321 36.2426 17.7574C37.3679 18.8826 38 20.4087 38 22C38 23.5913 37.3679 25.1174 36.2426 26.2426C35.1174 27.3679 33.5913 28 32 28V28ZM32 26C33.0609 26 34.0783 25.5786 34.8284 24.8284C35.5786 24.0783 36 23.0609 36 22C36 20.9391 35.5786 19.9217 34.8284 19.1716C34.0783 18.4214 33.0609 18 32 18C30.9391 18 29.9217 18.4214 29.1716 19.1716C28.4214 19.9217 28 20.9391 28 22C28 23.0609 28.4214 24.0783 29.1716 24.8284C29.9217 25.5786 30.9391 26 32 26V26Z" fill="#5BCCD9"/>
</g>
<defs>
<clipPath id="clip0_1301_2786">
<rect width="24" height="24" fill="white" transform="translate(20 15)"/>
</clipPath>
</defs>
</svg>
