<svg width="40" height="40" viewBox="0 0 40 40" fill="none" xmlns="http://www.w3.org/2000/svg">
<g clip-path="url(#clip0_2_2117)">
<path d="M11.25 4.16699C12.1802 4.16699 13.1013 4.35021 13.9607 4.70618C14.8201 5.06215 15.6009 5.5839 16.2587 6.24165C16.9164 6.8994 17.4382 7.68026 17.7941 8.53965C18.1501 9.39904 18.3333 10.3201 18.3333 11.2503V18.3337H11.25C9.37138 18.3337 7.5697 17.5874 6.24132 16.259C4.91294 14.9306 4.16666 13.1289 4.16666 11.2503C4.16666 9.37171 4.91294 7.57004 6.24132 6.24165C7.5697 4.91327 9.37138 4.16699 11.25 4.16699ZM15 15.0003V11.2503C15 10.5086 14.7801 9.78362 14.368 9.16694C13.9559 8.55025 13.3703 8.06961 12.6851 7.78578C11.9998 7.50195 11.2458 7.42769 10.5184 7.57238C9.79098 7.71707 9.12279 8.07423 8.59834 8.59868C8.0739 9.12312 7.71674 9.79131 7.57205 10.5187C7.42735 11.2462 7.50162 12.0002 7.78544 12.6854C8.06927 13.3706 8.54992 13.9563 9.1666 14.3683C9.78329 14.7804 10.5083 15.0003 11.25 15.0003H15ZM11.25 21.667H18.3333V28.7503C18.3333 30.1513 17.9179 31.5208 17.1396 32.6856C16.3612 33.8505 15.255 34.7584 13.9607 35.2945C12.6664 35.8306 11.2421 35.9709 9.8681 35.6976C8.49407 35.4242 7.23194 34.7496 6.24132 33.759C5.2507 32.7684 4.57608 31.5062 4.30276 30.1322C4.02945 28.7582 4.16973 27.334 4.70585 26.0396C5.24197 24.7453 6.14986 23.6391 7.3147 22.8607C8.47955 22.0824 9.84904 21.667 11.25 21.667ZM11.25 25.0003C10.5083 25.0003 9.78329 25.2203 9.1666 25.6323C8.54992 26.0444 8.06927 26.63 7.78544 27.3153C7.50162 28.0005 7.42735 28.7545 7.57205 29.4819C7.71674 30.2093 8.0739 30.8775 8.59834 31.402C9.12279 31.9264 9.79098 32.2836 10.5184 32.4283C11.2458 32.573 11.9998 32.4987 12.6851 32.2149C13.3703 31.931 13.9559 31.4504 14.368 30.8337C14.7801 30.217 15 29.492 15 28.7503V25.0003H11.25ZM28.75 4.16699C30.6286 4.16699 32.4303 4.91327 33.7587 6.24165C35.087 7.57004 35.8333 9.37171 35.8333 11.2503C35.8333 13.1289 35.087 14.9306 33.7587 16.259C32.4303 17.5874 30.6286 18.3337 28.75 18.3337H21.6667V11.2503C21.6667 9.37171 22.4129 7.57004 23.7413 6.24165C25.0697 4.91327 26.8714 4.16699 28.75 4.16699ZM28.75 15.0003C29.4917 15.0003 30.2167 14.7804 30.8334 14.3683C31.4501 13.9563 31.9307 13.3706 32.2145 12.6854C32.4984 12.0002 32.5726 11.2462 32.4279 10.5187C32.2832 9.79131 31.9261 9.12312 31.4016 8.59868C30.8772 8.07423 30.209 7.71707 29.4816 7.57238C28.7542 7.42769 28.0002 7.50195 27.3149 7.78578C26.6297 8.06961 26.044 8.55025 25.632 9.16694C25.2199 9.78362 25 10.5086 25 11.2503V15.0003H28.75ZM21.6667 21.667H28.75C30.1509 21.667 31.5204 22.0824 32.6853 22.8607C33.8501 23.6391 34.758 24.7453 35.2941 26.0396C35.8303 27.334 35.9705 28.7582 35.6972 30.1322C35.4239 31.5062 34.7493 32.7684 33.7587 33.759C32.768 34.7496 31.5059 35.4242 30.1319 35.6976C28.7579 35.9709 27.3336 35.8306 26.0393 35.2945C24.745 34.7584 23.6387 33.8505 22.8604 32.6856C22.0821 31.5208 21.6667 30.1513 21.6667 28.7503V21.667ZM25 25.0003V28.7503C25 29.492 25.2199 30.217 25.632 30.8337C26.044 31.4504 26.6297 31.931 27.3149 32.2149C28.0002 32.4987 28.7542 32.573 29.4816 32.4283C30.209 32.2836 30.8772 31.9264 31.4016 31.402C31.9261 30.8775 32.2832 30.2093 32.4279 29.4819C32.5726 28.7545 32.4984 28.0005 32.2145 27.3153C31.9307 26.63 31.4501 26.0444 30.8334 25.6323C30.2167 25.2203 29.4917 25.0003 28.75 25.0003H25Z" fill="#37798A"/>
</g>
<defs>
<clipPath id="clip0_2_2117">
<rect width="40" height="40" fill="white"/>
</clipPath>
</defs>
</svg>
